<?xml version="1.0" encoding="utf-8"?>
<!-- Generator: Adobe Illustrator 24.2.3, SVG Export Plug-In . SVG Version: 6.00 Build 0)  -->
<svg version="1.1" id="Layer_1" xmlns="http://www.w3.org/2000/svg" xmlns:xlink="http://www.w3.org/1999/xlink" x="0px" y="0px"
	 viewBox="0 0 1051 735" style="enable-background:new 0 0 1051 735;" xml:space="preserve">
<style type="text/css">
	.st0{clip-path:url(#SVGID_2_);}
	.st1{fill:#4D4D4D;}
	.st2{fill:#33CC99;}
	.st3{fill:#E6E6E6;}
	.st4{opacity:0.15;fill:url(#SVGID_3_);enable-background:new    ;}
</style>
<g>
	<g id="Layer_2_1_">
		<g id="Layer_1-2">
			<g id="Landing_Page_-_Device">
				<g id="iPhone_Green">
					<g>
						<defs>
							<path id="SVGID_1_" d="M1198,539.8H-147.5c0-178.1,0-356.1,0-534.2l1346,2C1198.4,185,1198.2,362.4,1198,539.8z"/>
						</defs>
						<clipPath id="SVGID_2_">
							<use xlink:href="#SVGID_1_"  style="overflow:visible;"/>
						</clipPath>
						<g class="st0">
							
								<image style="overflow:visible;opacity:0.15;enable-background:new    ;" width="1051" height="735" xlink:href="D270AC539F9BCE8A.png"  transform="matrix(1 0 0 0.7344 0 0)">
							</image>
							<path class="st1" d="M57.9,5.3h934.7c27.8,0,50.3,22.5,50.3,50.3v618.8c0,27.8-22.5,50.3-50.3,50.3H57.9
								c-27.8,0-50.3-22.5-50.3-50.3V55.6C7.6,27.8,30.1,5.3,57.9,5.3z"/>
							<path class="st2" d="M106.8,33.3h834.4c1.4,0,2.5,1.1,2.5,2.5v657.8c0,1.4-1.1,2.5-2.5,2.5H106.8c-1.4,0-2.5-1.1-2.5-2.5
								V35.8C104.3,34.4,105.5,33.3,106.8,33.3z"/>
							<path class="st3" d="M997.7,335.9h1.9c1.2,0,2.1,0.9,2.1,2.1v54.7c0,1.2-0.9,2.1-2.1,2.1h-1.9c-1.2,0-2.1-0.9-2.1-2.1V338
								C995.6,336.8,996.5,335.9,997.7,335.9z"/>
							
								<linearGradient id="SVGID_3_" gradientUnits="userSpaceOnUse" x1="7191.4204" y1="-5815.9746" x2="6842.9702" y2="-5815.9746" gradientTransform="matrix(0 -1 1 0 6366.0396 7196.52)">
								<stop  offset="0" style="stop-color:#FFFFFF"/>
								<stop  offset="1" style="stop-color:#FFFFFF;stop-opacity:0"/>
							</linearGradient>
							<path class="st4" d="M1042.5,353.5V57.2c0-28.6-22.1-52.1-49.6-52.1H57.6L1042.5,353.5z"/>
						</g>
					</g>
				</g>
			</g>
		</g>
	</g>
</g>
</svg>
